<svg width="1026" height="1026" viewBox="0 0 1026 1026" fill="none" xmlns="http://www.w3.org/2000/svg">
<g clip-path="url(#clip0_18_88)">
<path d="M323 955.726L569 943.5L620.5 941.671L663 937.5L678 957.734L733.5 966.267H803L856 957.734L896 924.5L927 914L935.5 900.5L927 864.37C931.232 859.807 933.658 855.745 938 848L940.5 833L919 771.508L879 729.344L745 666.599L742 650.5L720 611.5L754.5 589L783.5 559.385L799.5 512L778.5 446L834.5 432L875.5 412.424L907 383L923 342L918 284L878 239L835.5 218.5L819 179.5L786.5 148.5L725 126L669 124.5L616.5 85.5L542.5 67.5L462.5 88.5L413 130.509L363 143.56L320 172.673L296 226.5L303 295.151L346 334.303L370 351.37L363 385.503V391.526L370 400C370 400 359 444.57 363 457.785C367 471 354 485.694 354 488.906C354 492.119 344 521.031 339 535.086L329 548L327.5 574L354 613.391L363 643.509L383.5 678L310 705.752L276 704L237 711L208.5 724.5H179.5L121 755.5L91 792L68 813.5C64.2213 839.595 60.9957 850.087 68 877L167 928.5L323 955.726Z" fill="#3A462E"/>
<path d="M410.647 128.083C413.966 123.885 416.321 119.868 420.059 115.576C444.691 87.297 484.005 68.2705 523.378 64.1013C566.116 59.6421 610.65 71.5924 644.492 95.457C653.789 102.011 661.518 111.358 669.929 116.988C675.986 116.432 682.376 114.861 688.505 114.885C743.986 115.106 802.146 140.318 829.776 185.077C835.451 194.272 838.884 203.991 842.311 213.954C870.013 221.874 893.661 238.517 908.965 260.864C951.949 322.806 917.808 406.363 846.647 435.982C835.761 440.513 826.758 444.566 814.743 446.88C807.921 448.161 800.967 448.802 794.001 448.793C791.006 448.775 784.461 448.002 782.064 449.365C782.014 450.585 781.942 450.764 782.817 451.942C788.309 459.451 795.939 467.985 799.544 476.423C818.829 521.572 789.156 577.375 747.175 603.511C742.507 606.417 730.548 610.214 724.822 612.329C726.843 614.112 730.16 616.577 732.458 618.335C746.068 628.725 748.426 649.276 749.207 664.856C758.587 667.376 769.007 670.016 778.027 673.227C786.382 676.198 795.192 680.196 803.453 683.482C844.083 699.649 885.328 722.318 910.532 756.289C926.501 778.467 937.126 802.409 944.175 828.029C948.992 845.543 952.657 846.991 934.291 858.073C937.315 872.451 949.911 897.339 949.352 911.371C949.103 917.579 943.2 923.916 938.317 927.808C899.774 958.543 804.173 971.724 754.323 968.994C733.859 967.872 689.447 965.146 673.019 954.556C668.34 951.54 665.056 946.856 661.286 942.993C651.413 944.576 640.577 946.199 630.544 946.244C617.699 946.305 605.562 948.409 592.721 948.759C584.172 948.99 575.285 948.058 566.365 947.923C577.96 945.413 586.586 941.535 597.594 938.459C612.023 934.672 587.785 947.672 601.904 942.993C620.209 936.926 676.529 912.609 692.996 903.135C705.039 896.207 715.282 889.714 724.335 879.404C748.166 852.256 740.763 815.52 709.125 796.533C703.555 793.186 697.42 790.882 692.481 786.814C687.725 782.876 683.782 777.676 679.159 773.558C673.162 768.077 666.081 763.358 659.337 758.629C661.324 756.64 663.451 755.172 665.887 753.714C690.072 739.231 712.53 720.735 727.846 698.281C729.568 695.756 731.267 693.261 733.15 690.746C746.538 694.874 761.759 701.683 774.96 706.197C791.858 711.968 804.378 718.07 819.97 725.644C856.209 743.254 879.342 763.142 897.808 796.883C904.203 808.566 910.289 821.035 915.975 833.109C918.976 839.476 920.521 848.689 924.253 854.861L924.591 855.412C928.943 827.182 915.792 798.256 901.324 773.974C875.899 731.28 830.163 710.755 782.855 692.299C766.61 685.967 751.466 680.276 734.318 675.767C732.198 663.628 730.293 648.895 725.625 637.337C721.628 627.433 715.786 626.356 706.423 622.709C706.639 616.336 708.726 604.353 709.385 596.853C757.208 603.221 800.684 523.921 785.668 487.103C779.046 470.863 775.618 468.063 761.278 457.759C765.458 448.685 767.247 442.476 768.908 432.826C776.909 433.504 786.039 434.491 793.985 433.916C850.318 429.841 897.902 391.232 908.157 341.527C913.904 314.559 907.47 286.631 890.295 263.985C875.516 244.348 852.771 230.781 827.002 226.232C825.252 219.579 822.921 210.014 820.23 203.932C812.29 186.004 793.287 165.122 775.48 154.597C739.362 133.247 704.452 126.586 662.465 133.807C657.676 129.74 652.692 123.931 647.886 119.431C633.413 105.615 615.733 94.8698 596.127 87.9649C556.98 74.1354 520.704 74.6183 482.134 90.2413C459.282 99.4978 431.127 121.754 422.075 143.153C400.14 143.573 387.805 144.864 367.288 153.029C312.062 175.007 286.54 236.192 312.898 285.75C323.997 306.234 342.664 322.561 365.665 331.905C372.362 334.674 381.467 337.346 388.584 339.622C386.331 353.81 379.529 372.221 377.39 385.691C378.937 387.859 382.029 391.224 383.894 393.525L383.588 394.29C381.005 400.917 376.212 406.515 374.453 412.729C372.026 421.304 371.404 431.481 373.455 440.168C375.073 447.026 379.091 456.597 377.899 463.507C376.964 468.921 372.015 477.363 369.154 482.331C358.751 500.185 349.899 518.776 352.339 539.471C352.743 542.893 356.401 559.425 355.059 561.064C346.2 561.169 347.708 553.339 341.781 551.75C335.853 553.669 337.511 568.548 338.7 573.032C342.944 589.053 356.175 594.078 369.702 601.828C370.42 634.742 385.722 659.601 407.914 684.404L407.407 685C398.988 694.96 397.761 697.039 399.499 708.992C376.9 709.022 363.521 704.633 340.401 707.434C335.477 708.06 330.632 709.122 325.937 710.605C321.659 711.968 312.875 715.394 308.757 715.615C302.053 715.981 293.907 713.526 286.686 713.38C268.15 713.005 246.246 716.477 229.568 723.986C225.207 725.95 216.22 731.892 211.694 734.562C204.461 733.6 194.309 732.888 187.115 734.166C172.074 736.841 148.985 746.054 136.847 754.4C128.927 759.866 121.911 766.324 116.016 773.588C102.703 789.749 104.986 792.72 86.9437 807.629C57.161 832.237 71.1883 865.798 102.306 883.963C152.767 913.415 215.353 925.274 274.448 931.355C364.428 940.734 456.592 933.615 545.629 920.129C561.515 917.433 577.295 913.621 592.721 909.257C642.366 895.205 715.93 872.921 702.807 812.93C704.624 813.977 706.417 815.104 708.007 816.421C715.648 822.769 720.991 831.16 721.428 840.654C722.015 853.393 715.47 865.317 706.058 874.51C698.383 881.999 688.145 887.891 678.583 893.211C615.822 928.159 634.804 943.88 562 948.759C530.823 950.848 606.705 944.561 575.5 945.548C574.561 948.168 592.869 946.029 592.721 948.759C580.33 946.635 331.981 959.45 321.776 957.897C302.034 957.206 282.632 952.166 263.144 949.676C253.867 948.489 244.195 947.933 234.867 946.625C208.056 942.758 181.618 937.011 155.793 929.432C105.462 914.698 35.179 880.04 56.4096 822.097C60.6697 810.74 68.3927 800.706 78.6876 793.151C80.7645 791.623 87.8601 786.854 88.9022 785.165C93.1042 778.377 93.7592 772.891 99.2474 766.213C118.228 743.579 148.376 727.563 178.732 721C188.265 718.941 196.212 719.578 205.402 718.576C209.939 718.085 219.249 711.362 224.153 709.463C234.786 705.335 245.451 702.8 256.701 700.435C274.669 696.402 291.706 698.511 309.713 699.649C315.124 699.098 321.817 696.648 326.903 695.195C343.104 690.556 363.909 686.623 378.904 679.74L379.595 679.419C367.962 656.079 355.464 638.254 352.935 611.747C343.715 604.563 335.179 601.232 329.121 590.496C317.583 570.041 311.23 549.411 336.231 536.18C335.949 515.43 339.078 501.242 350.738 482.63C354.838 476.085 359.306 471.961 361.708 464.614C357.316 447.716 353.355 428.146 358.552 411.104C359.949 406.522 363.359 402.098 365.058 397.316C364.293 396.357 363.536 395.392 362.79 394.421C355.037 384.303 360.801 378.391 363.752 367.917C365.396 362.081 367.371 355.95 368.55 350.02C363.284 347.444 356.932 345.586 351.478 343.189C313.832 326.649 290.303 292.56 285.879 255.63C282.379 226.248 291.998 196.82 312.597 173.886C339.088 144.199 369.477 132.016 410.647 128.083Z" fill="#FDF0CF"/>
<path d="M775.491 840.298C777.346 840.614 778.647 840.604 779.134 842.482C780.9 849.386 781.044 856.485 782.622 863.443C785.834 877.651 790.286 891.443 793.824 905.605C799.505 909.097 820.069 915.49 819.189 922.248C815.08 924.617 804.792 919.748 800.058 918.706C795.352 917.509 788.453 919.427 784.959 916.116C781.498 912.835 771.321 910.796 766.338 908.782C749.118 902.013 737.529 901.698 720.592 892.846C723.615 891.658 726.162 890.892 729.479 891.202C745.475 892.705 761.466 897.254 776.825 901.167C774.55 889.845 766.111 847.267 775.491 840.298Z" fill="#3A462E"/>
<path d="M71.6787 865.412C76.0983 867.27 87.2736 881.814 91.4889 884.855C94.8448 884.795 97.4234 887.194 100.028 889.218C99.7611 890.315 99.8004 889.99 99.8148 891.172C100.792 891.944 100.71 891.904 101.974 892.164L102.6 890.897C103.613 891.087 104.617 892.174 105.5 892.915C108.878 895.736 126.559 904.112 129.752 904.503C131.083 905.119 132.514 905.535 133.119 906.667C127.972 906.397 122.41 904.413 117.938 902.169C99.0081 892.665 82.653 882.821 71.6787 865.412Z" fill="#F9F0D5"/>
<path d="M312.598 732.673L313.304 732.453C318.624 730.755 323.033 728.044 328.205 725.825C341.257 720.229 358.354 719.668 372.348 722.098C379.9 723.41 386.802 725.83 394.57 725.975C403.221 726.471 409.95 723.48 418.072 722.093C428.339 720.339 441.52 720.274 451.739 722.363C459.52 723.951 466.621 729.006 474.563 730.213C481.345 731.366 487.901 728.861 494.481 728.099C508.705 726.446 523.771 728.916 536.836 734.146C541.08 735.844 546.034 737.868 550.397 739.066C557.03 741.245 566.006 740.158 572.401 741.521C584.122 744.02 597.494 748.224 608.408 752.883C618.967 757.396 628.014 761.975 639.32 765.026C643.501 766.153 656.114 773.603 657.963 777.26C657.21 780.797 650.289 779.68 648.418 781.789C649.353 783.117 649.464 782.856 651.231 783.728C658.152 784.094 672.847 789.519 677.193 794.834C684.989 803.872 689.978 818.696 689.264 830.128C688.483 842.572 670.505 856.475 660.444 864.165L661.158 862.992C664.862 856.755 679.314 845.057 673.733 837.813C672.232 837.693 669.873 838.505 669.048 839.507C664.32 845.283 659.658 849.321 653.418 853.644C650.411 855.733 651.446 862.251 651.723 865.517C643.551 876.153 628.606 880.692 615.921 885.406C604.786 889.544 590.794 894.343 579.028 896.588C584.073 894.263 613.933 885.04 609.188 876.774C603.779 874.625 578.696 886.784 573.314 889.825C571.028 891.112 565.778 896.938 562.8 899.098C555.773 899.333 547.785 898.471 540.689 897.88C537.337 901.703 535.83 903.326 530.856 905.395C508.532 914.678 485.402 913.375 461.572 914.037C457.665 914.147 446.562 916.446 443.942 915.645C444.079 913.355 447.477 912.333 447.744 909.849C443.433 907.629 425.073 915.079 416.883 915.971C404.914 917.268 389.007 918.465 377.079 916.016C373.846 915.349 365.438 911.417 362.379 909.758C352.101 904.012 339.37 906.773 328.12 907.995C323.739 908.466 321.824 909.222 319.376 912.539C311.213 915.66 278.505 909.042 268.892 906.537C265.631 903.146 252.316 887.741 247.145 895.23C247.011 898.837 248.907 901.462 250.75 904.623C236.861 903.912 213.317 896.974 199.675 893.111C196.844 892.309 192.551 876.233 180.165 877.571C178.14 879.469 178.69 883.853 178.666 886.729C153.071 880.622 108.782 856.369 106.588 828.941C105.962 821.111 108.411 811.497 113.47 805.074C116.303 801.482 120.255 797.87 122.254 793.692C129.946 775.547 145.267 765.708 164.182 757.782C175.336 753.339 186.853 747.873 199.272 747.487C203.513 747.352 212.967 747.202 212.493 752.662L213.161 753.489C218.354 749.962 229.314 741.31 234.067 738.925C249.109 731.376 275.791 726.461 292.703 728.665C299.242 729.517 306.341 731.872 312.598 732.673Z" fill="#3A462E"/>
<path d="M178.666 886.729C153.071 880.622 108.782 856.369 106.588 828.941C105.962 821.111 108.411 811.497 113.47 805.074C116.303 801.482 120.255 797.87 122.254 793.692C129.946 775.547 145.267 765.708 164.182 757.782C175.336 753.339 186.853 747.873 199.272 747.487C203.513 747.352 212.967 747.202 212.493 752.662L208.548 756.57C202.976 756.715 195.567 756.595 190.394 758.338C190.639 762.126 190.972 765.913 191.39 769.69L190.819 770.116C187.761 772.376 182.678 775.732 178.6 775.677C174.077 775.572 172.004 769.465 167.033 770.933C164.259 771.749 157.151 775.732 157.752 778.588C160.461 791.443 159.026 793.507 148.538 802.765C145.271 799.824 141.051 795.671 136.032 800.385C134.084 802.214 129.867 806.447 129.968 808.972C132.253 811.597 136.633 813.892 139.377 816.386C143.362 820.008 146.146 823.781 149.024 828.074C157.459 840.644 151.568 840.849 142.977 847.783C157.103 845.438 173.383 846.786 185.829 854.01C191.967 858.103 194.61 863.168 201.866 866.108C208.331 868.728 221.775 863.689 227.25 865.953C239.561 871.048 249.599 875.261 263.37 877.526C268.544 878.377 276.395 882.881 282.006 883.733C290.395 885.301 298.371 881.624 306.694 881.624C317.297 881.624 327.564 884.634 337.951 885.742C354.548 887.51 371.168 888.347 387.751 890.571C395.404 891.598 404.843 889.033 412.135 887.36C425.122 883.412 436.148 887.114 449.251 887.801C459.567 888.342 468.646 884.058 478.66 883.122C492.209 882.726 500.554 887.29 515.749 883.507C529.701 880.04 537.493 873.047 551.797 869.525C559.715 867.576 575.429 869.159 580.496 866.95C589.133 863.188 593.463 858.539 604.438 854.1C616.791 849.11 629.47 853.779 637.084 846.31C639.105 844.326 640.422 835.599 642.36 833.715C652.742 823.621 651.856 830.133 657.748 815.835C661.341 813.806 663.644 812.584 666.806 810.069C662.266 801.838 660.843 799.824 650.334 801.402C645.749 796.783 643.623 793.517 640.19 788.101L640.378 787.215C638.075 783.582 637.039 783.898 634.747 781.143L635.345 780.276C637.792 779.65 642.632 780.512 644.176 782.415L643.816 783.377C642.382 783.542 640.943 783.688 639.503 783.818L639.343 784.254C641.126 785.135 641.962 785.326 643.811 784.64C644.725 783.527 645.096 782.841 646.485 782.265C647.703 783.507 647.687 783.648 649.398 784.359L651.231 783.728C658.152 784.093 672.847 789.519 677.193 794.834C684.989 803.872 689.978 818.696 689.264 830.128C688.483 842.572 670.505 856.475 660.444 864.165L661.158 862.992C664.862 856.755 679.314 845.057 673.733 837.813C672.232 837.693 669.873 838.505 669.048 839.506C664.32 845.283 659.658 849.321 653.418 853.644C650.411 855.733 651.446 862.251 651.723 865.517C643.551 876.153 628.606 880.692 615.921 885.406C604.786 889.544 590.794 894.343 579.028 896.588C584.073 894.263 613.933 885.04 609.188 876.774C603.779 874.625 578.696 886.784 573.314 889.825C571.028 891.112 565.778 896.938 562.8 899.098C555.773 899.333 547.785 898.471 540.689 897.88C537.337 901.703 535.83 903.326 530.856 905.395C508.532 914.678 485.402 913.375 461.572 914.037C457.665 914.147 446.562 916.446 443.942 915.645C444.079 913.355 447.477 912.333 447.744 909.849C443.433 907.629 425.073 915.079 416.883 915.971C404.914 917.268 389.007 918.465 377.079 916.016C373.846 915.349 365.438 911.417 362.379 909.758C352.101 904.012 339.37 906.773 328.12 907.995C323.739 908.466 321.824 909.222 319.376 912.539C311.213 915.66 278.505 909.042 268.892 906.537C265.631 903.146 252.316 887.74 247.145 895.23C247.011 898.837 248.907 901.462 250.75 904.623C236.861 903.912 213.317 896.974 199.675 893.111C196.844 892.309 192.551 876.233 180.165 877.571C178.14 879.469 178.69 883.853 178.666 886.729Z" fill="#FBE8C8"/>
<path d="M312.598 732.673L313.304 732.453C318.624 730.755 323.033 728.044 328.205 725.825C341.257 720.229 358.354 719.668 372.348 722.098C379.9 723.41 386.801 725.83 394.57 725.975C403.221 726.471 409.95 723.48 418.072 722.093C428.339 720.339 441.52 720.274 451.738 722.363C459.52 723.951 466.621 729.006 474.563 730.213C481.345 731.366 487.901 728.861 494.481 728.099C508.705 726.446 523.771 728.916 536.836 734.146C541.08 735.844 546.034 737.868 550.397 739.066C557.03 741.245 566.005 740.158 572.401 741.521C584.122 744.02 597.494 748.224 608.408 752.883C618.967 757.396 628.014 761.975 639.32 765.026C643.501 766.153 656.114 773.603 657.963 777.26C657.21 780.797 650.289 779.68 648.418 781.789C649.353 783.117 649.464 782.856 651.23 783.728L649.398 784.359C647.687 783.648 647.703 783.507 646.485 782.265C645.095 782.841 644.725 783.527 643.811 784.64C641.962 785.326 641.126 785.135 639.343 784.254L639.503 783.818C640.943 783.688 642.382 783.542 643.816 783.377L644.176 782.415C642.632 780.512 637.792 779.65 635.345 780.276L634.747 781.143C637.039 783.898 638.075 783.582 640.378 787.215L640.19 788.101C640.212 788.116 636.674 784.945 636.286 784.63C631.94 781.218 629.077 777.716 628.274 772.436C627.826 769.505 627.781 766.95 624.753 765.442L623.894 765.708C620.954 768.829 620.932 771.203 620.893 775.016C614.183 773.618 612.605 772.932 606.536 769.831C599.006 756.42 593.391 760.648 579.344 762.947C560.629 751.916 559.649 744.286 535.106 752.762C525.882 748.985 514.198 741.5 504.566 739.176C493.973 736.626 476.294 741.681 464.725 739.952C457.939 738.94 456.369 737.307 450.386 735.509C445.93 734.171 438.909 734.487 434.128 733.69C431.339 733.375 423.429 731.531 421.437 731.576C409.831 731.832 397.39 737.077 385.441 737.798C373.804 738.505 368.273 733.029 356.116 733.084C344.52 733.129 340.436 737.327 330.766 738.78C326.325 739.446 315.283 739.111 309.446 739.612C298.654 740.534 289.983 742.377 279.412 744.06L279.093 743.795C266.706 733.835 259.477 741.701 251.064 750.288C243.185 751.044 237.987 754.04 230.657 756.249C226.285 757.562 214.669 759.661 211.213 756.359C211.136 754.932 211.685 754.967 213.161 753.489C218.354 749.962 229.314 741.31 234.067 738.925C249.109 731.376 275.791 726.461 292.703 728.665C299.242 729.517 306.34 731.872 312.598 732.673Z" fill="#F9E2C1"/>
<path d="M403.694 749.681C429.592 750.127 458.072 752.883 483.626 756.44C490.4 757.386 497.443 757.682 504.292 758.674C531.053 762.552 555.164 768.042 580.54 776.985C591.869 780.977 602.134 784.094 613.214 789.92C624.31 795.751 634.332 803.877 638.728 815.359C639.564 817.554 637.543 819.097 635.544 820.049C626.862 824.182 626.934 830.985 621.896 837.603C605.944 839.506 599.515 839.857 585.507 847.843C581.404 850.182 573.973 854.01 569.449 855.418C561.675 857.847 551.383 857.251 543.473 859.055C533.715 861.284 524.237 866.018 514.585 869.104C517.303 866.775 521.922 863.168 523.859 860.417C528.867 853.313 524.963 845.669 517.329 841.671C502.199 833.755 482.84 832.313 465.955 835.654C454.228 838.019 435.295 846.605 440.101 860.047C443.015 868.202 453.855 869.755 461.003 872.882L460.975 873.458C447.897 878.828 431.104 871.133 414.425 873.833C400.358 878.237 382.878 878.037 368.101 876.899C379.488 869.255 386.608 861.429 373.389 849.952C361.594 839.707 342.917 840.268 327.778 840.719C315.799 841.075 301.251 845.809 292.858 853.89C285.907 860.713 292.627 866.589 292.859 871.213C288.573 874.369 265.844 862.762 259.8 861.179C253.806 859.601 240.958 858.614 236.299 856.525C224.396 851.184 223.661 851.926 210.963 854.19C203.595 849.521 197.269 842.152 189.195 838.775C185.527 837.242 178.795 836.691 174.821 835.153C168.994 832.894 169.966 827.603 167.446 823.55C165.892 821.051 162.884 819.543 161.351 816.031C161.359 813.902 172.994 798.657 175.097 796.803C186.584 786.924 205.802 778.763 220.71 774.079C251.418 764.435 283.445 759.005 315.597 755.137C325.081 753.995 338.945 751.29 348.095 751.119C366.904 750.769 384.843 750.824 403.694 749.681Z" fill="#FDF0CF"/>
<path d="M395.665 781.689C396.632 780.777 397.16 779.835 397.872 778.748C399.008 779.655 399.464 779.91 400.704 780.642C401.682 782.044 402.64 783.402 403.255 784.845C404.226 787.119 402.968 792.946 406.654 793.341C419.987 794.769 434.214 794.915 442.91 805.911C449.64 814.418 445.826 823.681 435.845 828.425C419.681 835.594 395.257 835.198 378.144 831.721C367.761 829.607 355.068 821.642 358.803 810.971C363.606 797.249 385.122 794.884 397.694 793.021C395.353 788.978 394.428 786.463 395.665 781.689Z" fill="#3A462E"/>
<path d="M236.797 804.283C245.184 803.942 251.918 804.413 260.68 805.205C274.804 806.482 296.254 818.41 283.531 832.889C276.529 840.859 260.741 841.22 249.951 841.661C234.621 841.911 218.376 842.748 205.236 834.226C197.761 829.382 195.493 821.952 201.978 815.43C210.222 807.138 225.158 804.889 236.797 804.283Z" fill="#3A462E"/>
<path d="M242.358 814.803C247.32 814.488 265.885 813.846 265.89 821.351C265.896 829.903 248.227 830.579 241.185 831.035C234.984 830.849 220.099 829.487 217.319 823.61C217.842 816.151 236.291 815.149 242.358 814.803Z" fill="#3A462E"/>
<path d="M556.443 791.758C568.663 791.217 584.045 793.367 594.249 800.08C601.608 804.924 604.354 813.01 597.738 819.583C588.602 828.66 571.448 829.272 558.807 829.833C545.689 830.709 516.677 829.437 514.632 812.424C514.45 809.007 516.362 805.35 519.024 803C529.277 793.953 542.945 792.405 556.443 791.758Z" fill="#3A462E"/>
<path d="M554.472 805.245C558.962 804.663 578.065 805.3 576.808 811.747C574.931 813.446 571 814.367 568.419 814.628C558.94 814.478 550.202 814.367 544.056 806.978C547.981 806.116 550.454 805.726 554.472 805.245Z" fill="#3A462E"/>
<path d="M312.29 761.199C324.436 759.791 343.281 762.161 353.155 769.119C363.028 776.073 361.092 786.623 350.049 791.418C339.477 796.012 327.841 797.204 316.297 797.755C305.26 798.937 284.695 796.903 275.357 790.296C269.245 785.972 267.532 778.262 273.451 772.877C283.609 763.639 298.603 761.985 312.29 761.199Z" fill="#3A462E"/>
<path d="M290.837 776.744C294.575 776.298 303.832 776.083 306.831 778.222C300.138 779.945 296.769 779.244 290.837 776.744Z" fill="#3A462E"/>
<path d="M336.651 775.156L337.572 775.602L337.395 776.338C335.236 778.092 334.249 778.437 331.715 779.565C330.58 778.523 330.417 778.347 329.511 777.135L329.744 776.203C331.487 775.261 334.5 775.301 336.651 775.156Z" fill="#3A462E"/>
<path d="M462.632 759.145C473.593 757.602 482.841 759.856 493.879 761.489C509.799 763.849 526.917 778.262 505.966 788.758C499.274 792.114 490.597 793.076 482.688 793.662C470.15 794.955 446.29 794.028 436.806 786.719C415.797 770.537 450.241 760.507 462.632 759.145Z" fill="#3A462E"/>
<path d="M467.644 770.176C472.669 769.956 489.272 769.325 491.584 774.219C490.379 777.075 482.203 778.903 479.065 779.409C468.614 780.306 462.776 781.243 454.64 774.319C459.218 771.524 462.333 770.682 467.644 770.176Z" fill="#3A462E"/>
<path d="M317.045 811.176C322.727 810.78 323.806 811.602 327.537 815.199C332.84 814.738 346.594 810.695 349.687 814.377L349.487 815.54C346.776 817.804 342.029 818.811 338.452 819.788C329.899 821.797 321.391 826.576 312.16 822.824C310.359 822.092 308.37 820.554 307.806 818.766C307.481 817.719 307.629 816.602 308.22 815.655C309.886 812.94 313.965 811.948 317.045 811.176Z" fill="#3A462E"/>
<path d="M395.665 781.689C396.179 779.935 396.429 778.949 396.732 777.165C385.162 774.545 373.904 770.116 390.519 761.82C396.985 758.594 409.206 761.259 409.843 769.375C410.012 771.519 401.607 775.427 399.065 776.729C398.813 777.977 399.923 779.274 400.704 780.642C399.464 779.91 399.008 779.655 397.871 778.748C397.159 779.835 396.632 780.777 395.665 781.689Z" fill="#3A462E"/>
<path d="M480.361 808.681C494.356 807.183 499.283 822.528 479.178 819.347C475.358 818.38 466.397 816.807 465.208 813.4C466.933 810.77 476.92 809.292 480.361 808.681Z" fill="#3A462E"/>
<path d="M406.611 845.087C410.697 844.606 415.258 846.124 417.116 849.631C417.913 851.124 418.001 852.847 417.363 854.4C416.275 856.975 414.184 857.787 411.584 858.819C398.495 858.839 394.839 852.171 406.611 845.087Z" fill="#3A462E"/>
<path d="M228.261 785.586C232.896 785.06 240.815 785.045 241.341 790.571C240.061 793.582 238.384 794.018 235.203 795.386C234.831 795.441 234.457 795.491 234.084 795.531C229.567 796.037 222.971 795.481 222.316 790.476C223.354 787.58 225.31 787.019 228.261 785.586Z" fill="#3A462E"/>
<path d="M554.09 838.174C562.041 837.968 566.913 842.006 559.25 847.788C558.658 847.833 558.065 847.858 557.467 847.868C550.179 847.933 545.852 842.788 554.09 838.174Z" fill="#3A462E"/>
<path d="M535.984 778.628C539.508 778.377 545.685 778.262 545.131 782.921C544.076 784.469 543.417 784.559 541.508 785.401C538.195 785.581 532.729 785.246 532.435 781.473C533.44 779.715 533.962 779.645 535.984 778.628Z" fill="#3A462E"/>
<path d="M325.382 850.854C332.967 849.917 346.795 850.443 353.524 853.739C370.06 861.84 352.772 866.459 343.539 867.626C330.363 868.363 316.325 868.198 308.501 857.031C315.114 853.063 317.459 851.725 325.382 850.854Z" fill="#3A462E"/>
<path d="M484.415 845.373C490.458 845.333 503.271 845.794 505.995 851.735C506.199 858.854 486.808 858.999 481.56 859.12C475.475 859.125 462.823 858.348 459.392 853.183C458.895 845.628 478.549 845.533 484.415 845.373Z" fill="#3A462E"/>
<path d="M534.627 94.395C572.273 91.8375 610.799 106.901 636.485 131.425C640.267 135.035 642.947 138.05 645.782 142.283C640.965 145.674 625.644 157.162 626.43 162.538C626.729 162.726 627.023 162.914 627.322 163.102C630.633 161.529 633.645 159.798 636.984 158.238C703.832 126.979 797.19 161.582 811.282 230.718C812.323 235.839 811.736 242.848 811.454 248.165C812.976 249.089 814.543 249.834 816.143 250.631C820.617 240.645 820.174 237.741 833.319 242.794C869.614 256.744 895.045 288.634 894.01 325.134C892.797 367.901 857.289 404.312 812.611 415.765C798.204 419.458 786.703 419.05 771.936 418.792C774.721 408.663 777.612 396.856 778.824 386.577C798.375 387.519 810.042 387.599 824.299 373.282C817.079 374.23 811.365 376.052 803.702 375.547C792.019 374.776 777.457 371.315 768.575 364.078C765.535 361.598 761.228 356.732 758.282 353.833C751.815 347.579 745.447 341.243 739.174 334.826C745.591 333.73 752.878 332.679 758.636 329.85C768.57 324.971 777.634 318.389 781.227 308.468C766.133 316.659 754.794 318.813 737.12 319.204C729.955 319.19 721.118 318.939 714.656 315.679C703.588 310.093 693.189 303.335 682.01 297.848C670.028 291.969 657.592 287.326 644.896 282.907C639.929 281.166 636.098 279.7 632.875 275.663C624.382 265.023 616.962 253.719 611.525 241.524C610.218 238.618 609.349 230.44 608.031 228.752C605.999 229.77 603.939 231.964 603.269 233.869C598.347 247.783 603.169 259.953 608.69 272.11C600.789 270.326 592.666 269.631 584.776 268.18C558.32 263.315 534.331 263.256 507.506 264.012C495.635 257.513 484.353 251.399 475.51 241.416C473.149 238.751 471.8 232.39 468.469 231.866C464.689 234.791 467.608 244.355 468.643 248.266C470.747 256.216 476.519 261.623 482.245 267.624C463.564 270.528 445.791 275.25 429.031 283.338C421.732 286.861 415.793 291.271 408.058 293.951C402.508 292.982 397.331 291.54 392.012 289.751C387.848 288.352 382.9 283.225 378.918 283.924C374.831 289.905 395.66 304.336 400.037 308.084C397.397 313.468 394.948 319.294 392.611 324.804C373.67 320.274 362.287 315.333 348.391 302.846C280.13 241.505 338.484 150.635 431.004 158.418C433.519 148.852 438.929 141.72 446.028 134.364C470.983 108.508 497.356 96.8322 534.627 94.395Z" fill="#FDF0CF"/>
<path d="M497.439 351.897C512.727 351.396 528.034 352.063 543.197 353.891C578.574 357.994 609.487 366.526 641.563 380.766C652.277 385.522 662.127 388.604 669.508 397.251C668.306 400.491 667.038 403.761 666.163 407.088C661.634 424.336 662.459 437.619 669.076 454.236C671.523 460.375 674.264 466.418 674.624 473.012C674.834 476.814 674.535 480.692 673.932 484.457C673.195 489.06 668.461 500.392 671.495 504.258C673.544 506.868 679.746 508.065 683.073 508.747C686.794 509.508 692.636 510.46 695.947 508.366C700.243 505.641 703.156 486.828 720.597 476.964C729.014 472.202 739.052 469.641 748.858 471.841C756.189 473.485 762.529 477.521 766.416 483.408C773.785 494.576 774.422 509.934 771 522.288C765.286 542.923 750.248 566.895 729.578 577.982C721.456 582.335 707.325 585.531 699.097 579.755C696.445 577.891 693.405 573.368 690.244 572.626C687.387 574.74 687.082 581.829 685.975 584.975C678.151 607.189 668.262 627.022 649.73 643.695C646.358 646.731 626.33 664.099 625.959 666.354C627.139 667.336 629.498 667.917 631.042 667.591C635.001 666.755 639.099 664.325 642.559 662.341C656.612 654.28 669.153 643.129 678.406 630.629C681.977 625.695 684.784 620.515 688.516 615.455C690.138 626.837 688.001 643.169 690.421 652.647C671.772 677.025 626.031 700.836 596.348 712.739C590.678 715.009 584.698 716.692 578.906 718.686C572.589 720.855 566.404 723.36 560.125 725.629C554.793 723.856 551.826 722.599 547.27 719.553C557.833 716.241 566.171 713.14 574.626 706.272C588.563 694.95 612.2 684.514 618.302 667.937C606.962 672.541 596.58 683.267 584.094 678.543C582.666 678.002 571.941 686.759 569.61 688.176C531.368 711.462 462.817 716.136 427.906 685.481C425.228 683.127 420.093 675.016 417.301 671.694C399.519 653.86 384.026 629.377 382.271 605.034C386.076 605.711 390.385 607.058 394.395 607.83C408.05 610.465 418.372 608.516 431.41 605.28C449.278 621.982 481.95 619.427 504.88 614.648C509.079 613.771 515.702 611.106 519.161 610.796C524.358 610.325 532.83 612.955 538.722 612.81C559.322 612.314 585.025 606.492 600.118 593.442C608.867 585.877 614.913 575.632 615.384 564.54C615.605 559.295 613.307 550.032 605.517 550.548C603.618 550.673 603.042 551.31 601.946 552.582C601.719 553.779 601.641 554.07 602.267 555.092C608.247 564.891 583.674 566.675 577.876 564.941C566.288 561.474 556.232 553.148 545.563 547.878C540.778 545.513 535.124 544.391 529.897 543.079C530.324 542.077 530.734 541.07 531.127 540.058C534.143 532.348 533.063 522.118 523.286 519.227C521.026 520.966 527.324 528.33 526.163 531.777C524.766 535.915 518.527 539.512 514.844 541.721C509.603 540.504 504.287 539.101 498.921 539.336C481.891 540.083 472.892 552.151 454.958 546.4C447.553 544.025 440.346 540.709 436.739 533.78C425.49 512.9 448.703 502.349 459.8 488.13C469.538 475.653 478.126 453.34 471.514 438.149C471.063 437.114 470.044 436.677 468.981 436.432C466.821 438.409 467.965 447.749 467.159 451.349C461.674 475.86 437.294 489.29 424.599 509.618C417.844 520.434 420.274 530.314 424.718 541.566C410.299 543.389 401.292 547.026 389.78 554.872C385.831 557.557 377.026 563.659 371.967 561.8C368.214 558.008 368.382 551.265 367.471 546.55C363.6 526.526 369.885 507.534 379.947 489.801C382.994 484.431 387.942 475.264 388.889 469.183C390.866 456.495 386.894 446.078 387.707 432.391C392.022 427.359 405.068 417.898 411.342 414.908C420.804 410.321 431.806 408.798 442.284 411.155C448.172 412.48 461.361 419.886 458.805 407.738C455.721 393.079 441.157 386.063 425.52 387.23C412.09 388.232 404.611 396.117 394.053 402.297C395.774 395.778 401.996 383.125 407.139 378.251C427.754 358.709 469.325 353.325 497.439 351.897Z" fill="#FDF0CF"/>
<path d="M566.841 385.933C597.4 384.092 624.919 402.568 627.643 431.027C627.848 433.141 627.682 434.307 626.115 435.857C625.594 435.908 625.068 435.96 624.548 436.011C617.931 431.468 613.086 426.382 605.971 422.306L605.268 421.918C586.426 411.665 560.529 405.608 539.776 413.936C536.282 414.718 533.207 411.067 533.297 408.42C533.826 392.789 553.151 387.225 566.841 385.933Z" fill="#3A462E"/>
<path d="M740.076 490.986C757.291 489.551 761.432 507.79 757.534 509.754C752.618 508.12 751.388 501.518 747.352 501.387C743.57 501.267 729.634 509.714 730.525 513.19C731.987 518.896 737.679 523.02 737.291 530.444C736.809 539.602 732.23 546.27 725.043 552.562C721.644 554.496 717.618 556.219 713.532 555.333C710.703 551.475 732.363 540.484 717.591 527.654C715.426 529.793 713.737 532.278 710.321 532.127C706.362 529.317 710.935 522.033 712.48 518.626C717.923 506.683 725.868 495.21 740.076 490.986Z" fill="#3A462E"/>
<path d="M560.778 457.049C577.096 455.335 595.855 461.21 605.478 473.575C613.657 484.089 602.372 486.186 594.056 481.074C591.88 479.739 587.029 477.843 584.632 477.039L583.735 476.743C567.672 471.608 555.607 471.675 540.418 477.277C538.561 477.962 536.658 477.721 534.927 476.778C532.925 474.188 534.153 470.836 536.073 468.467C541.891 461.287 551.47 458.52 560.778 457.049Z" fill="#3A462E"/>
<path d="M413.679 444.433C428.586 441.522 446.483 446.038 456.571 457.724C465.144 467.662 454.924 470.588 446.746 466.074C444.606 464.895 439.942 463.35 437.65 462.72L436.792 462.489C421.457 458.517 410.319 459.467 396.831 466.191C395.182 467.013 393.401 466.911 391.71 466.092C389.61 463.644 390.419 460.195 391.964 457.68C396.642 450.061 405.223 446.587 413.679 444.433Z" fill="#3A462E"/>
<path d="M444.013 632.282C450.634 631.741 453.576 634.492 459.568 635.804C468.882 637.843 479.322 637.478 488.821 636.836C492.932 636.561 499.027 634.171 502.886 634.797L503.43 635.749C502.83 638.319 500.538 639.962 498.33 641.43C480.928 651.861 463.835 651.405 448.221 638.119C445.9 636.145 444.19 635.358 444.013 632.282Z" fill="#3A462E"/>
<path d="M517.007 279.836C525.875 279.387 534.761 279.317 543.635 279.627C609.537 282.434 689.773 308.757 734.91 353.774C734.041 359.595 731.178 366.319 729.827 372.116C726.638 385.777 723.205 398.131 718.859 411.531C713.781 407.757 709.008 402.711 703.394 398.731C682.896 384.207 660.898 370.578 636.895 361.396C607.92 349.468 580.468 342.735 548.442 339.29C504.075 334.518 454.193 336.141 413.815 355.522C408.051 358.289 402.036 362.757 396.869 366.387C402.632 352.899 409.246 316.165 418.272 307.412C421.617 304.168 426.098 301.788 430.274 299.534C455.737 285.787 487.694 281.053 517.007 279.836Z" fill="#FBE8C8"/>
<path d="M670.825 690.411C682.243 680.587 695.615 672.075 704.612 659.951C706.096 657.958 709.501 652.342 711.843 651.685C714.512 655.172 716.804 677.571 718.748 683.567C697.381 715.705 678.378 730.424 643.285 750.052C631.962 744.301 620.622 739.877 608.44 735.819C601.768 733.6 595.6 734.001 588.718 734.557C589.964 732.994 592.084 730.193 593.939 729.387C608.784 722.914 623.717 716.767 638.008 709.268C639.508 708.481 644.038 705.996 645.483 705.61C652.996 700.716 662.78 695.481 670.825 690.411Z" fill="#F9E7C8"/>
<path d="M645.483 705.61C652.997 700.716 662.78 695.481 670.826 690.411C669.801 693.497 650.582 706.252 645.483 705.61Z" fill="#F9F0D5"/>
<path d="M754.91 375.511C761.516 378.574 763.714 389.597 761.837 395.316C759.019 403.89 753.415 436.308 748.897 442.15L747.989 442.075C745.531 438.434 741.367 434.98 739.213 431.458C737.352 428.406 741.472 418.96 742.629 415.446L749.179 395.244C751.195 389.06 752.978 380.86 754.91 375.511Z" fill="#F7E0C9"/>
<path d="M92.83 821.021C93.4806 821.742 93.341 821.406 93.072 822.964C89.0992 845.979 101.701 862.191 120.567 876.103C121.741 876.97 125.42 879.344 125.652 880.501C123.359 880.622 122.263 879.99 120.113 879.159C106.71 872.796 82.0185 853.549 83.22 838.184C83.7566 831.321 87.2332 825.549 92.83 821.021Z" fill="#F9F0D5"/>
<path d="M467.154 586.383C468.783 587.024 475.189 595.841 478.931 598.061C483.544 600.796 488.976 601.983 493.029 604.418L492.272 605.215C487.625 606.818 479.903 606.913 474.733 607.158C464.441 607.364 460.928 607.188 451.115 604.463C449.254 602.615 448.572 601.502 447.163 599.408C456.58 595.927 460.833 593.612 467.154 586.383Z" fill="#FAE3B9"/>
<path d="M661.773 869.164L661.972 869.816C656.347 874.655 649.597 882.405 643.29 884.514L642.626 884.73L643.529 885.641L643.091 886.172C634.919 886.027 636.834 887.645 629.919 890.701C627.831 891.623 623.009 891.834 620.556 891.738C619.166 891.778 619.061 891.708 617.688 891.423C640.395 884.139 642.692 881.939 661.773 869.164Z" fill="#3A462E"/>
<path d="M417.408 699.649C420.502 700.666 428.238 704.443 426.783 707.98C418.616 709.448 414.62 707.675 417.408 699.649Z" fill="#F9F0D5"/>
<path d="M349.733 914.027C353.617 913.556 361.336 912.444 363.732 915.6C360.528 915.885 351.388 916.777 349.733 914.027Z" fill="#FEBCB9"/>
</g>
<defs>
<clipPath id="clip0_18_88">
<rect width="1026" height="1026" fill="white"/>
</clipPath>
</defs>
</svg>
